<svg width="296" height="211" viewBox="0 0 296 211" fill="none" xmlns="http://www.w3.org/2000/svg">
<rect opacity="0.42" y="151" width="296" height="60" fill="url(#paint0_diamond)"/>
<path d="M123.227 166.467C115.049 166.467 114.496 156.454 115.241 151.447C124.717 151.447 142.712 152.278 143.99 156.88C145.268 161.481 141.25 166.328 137.5 166.467C128.875 166.786 128.976 166.467 123.227 166.467Z" fill="url(#paint1_linear)"/>
<path d="M151.5 166.147C146.215 165.547 145 151.5 145 151.5C145 151.5 168.684 143.09 169.962 147.692C171.24 152.294 169.962 164.664 166.833 165.528C161.5 167 154.317 166.467 151.5 166.147Z" fill="url(#paint2_linear)"/>
<path d="M96.4286 140.808C95.5 136.189 98.1758 132.694 101.748 130.795C107.684 127.641 109 146.128 109 146.128C109 146.128 104.251 146.754 101.435 146.128C99 145.587 96.8996 143.151 96.4286 140.808Z" fill="#333333"/>
<path d="M99.2451 122.973C99.803 117.673 101.748 106.388 108.319 101.695L158.072 107.014C159.219 107.431 168.316 107.089 174.656 119.218C181.853 132.986 176.533 144.25 169.649 149.257C162.765 154.263 144.13 157.683 144 157.5C141.5 154 115 152.5 115 152.5C103 149.257 97.9932 134.863 99.2451 122.973Z" fill="url(#paint3_linear)"/>
<g opacity="0.7" filter="url(#filter0_f)">
<path d="M183 134.5C183 143.06 171.807 150 158 150C144.193 150 133 143.06 133 134.5C133 125.94 144.193 119 158 119C171.807 119 183 125.94 183 134.5Z" fill="url(#paint4_linear)"/>
</g>
<path opacity="0.24" d="M141.429 118.734C142.153 114.081 143.962 111.575 146.494 110.143L135.943 111.575L127.407 147.692C134.603 149.883 139.094 143.984 141.067 137.346C142.876 131.261 140.706 123.387 141.429 118.734Z" fill="black"/>
<path d="M108.006 101.695C108.006 101.695 102.687 107.014 103.313 107.953C103.938 108.892 106.442 106.714 109.571 107.327C112.7 107.94 115.834 109.781 117.706 112.647C119.295 115.078 118.958 117.653 118.645 119.531C117.533 126.199 115.516 132.047 118.019 139.87C119.321 143.937 122.274 147.778 127.719 148.005C135.229 148.318 137.204 142.921 138.671 137.053C140 131.738 138.671 125.5 138.984 120.782C139.297 116.064 141.174 114.524 143.365 113.272C149.524 109.753 155.568 109.935 161.2 109.83L159.949 103.572L108.006 101.695Z" fill="url(#paint5_linear)"/>
<path d="M156.778 2.77523e-10C155.213 -6.08696e-05 136.752 10.013 140.82 10.013C144.887 10.0131 151.771 10.9518 152.397 10.9518C153.023 10.9518 153.746 9.74335 158.655 8.76147C161.784 8.13565 162.097 5.94531 160.533 5.6324C158.968 5.31949 149.641 7.62966 149.581 7.50984C149.521 7.39003 155.526 3.82606 156.778 2.88733C158.03 1.94861 158.343 6.08707e-05 156.778 2.77523e-10Z" fill="#E6DED9"/>
<path d="M91.1788 75.9594C90.6822 70 89.4817 57.7441 93.995 49.6752C105 30 108.292 23.1877 118.089 15.5683C132.17 4.61646 166.277 6.49411 181.609 24.0168C197.205 41.8408 197.337 65.5394 196.315 72.5175C192 102 168.871 105.909 156.264 106.311C126.85 107.25 122.642 105.233 109.5 102C97 97.5 91.6754 81.9188 91.1788 75.9594Z" fill="url(#paint6_linear)"/>
<g opacity="0.7" filter="url(#filter1_f)">
<path d="M191 62C191 81.33 171.301 97 147 97C122.699 97 103 81.33 103 62C103 42.67 122.699 27 147 27C171.301 27 191 42.67 191 62Z" fill="url(#paint7_linear)"/>
</g>
<path d="M184.981 10.6385C177.785 10.6388 174.343 14.602 171.839 17.2096C179.036 22.2161 185.49 27.7288 193 44C193 44 200.303 36.3598 200.94 32.542C201.566 28.7875 200.314 23.1551 197.185 18.4612C194.045 13.751 190.642 10.6383 184.981 10.6385Z" fill="#333333"/>
<path d="M191.51 25.3301C189.257 24.0785 185.46 26.6859 184 28.1462C184 28.1462 186.19 31.2753 187.755 33.4656C189.432 35.8131 191.197 39.4109 191.197 39.4109C192.24 37.8463 194.424 37.1893 195.578 33.1527C196.203 30.9624 194.326 26.8947 191.51 25.3301Z" fill="black"/>
<path d="M90.7967 48.8134C94.2503 50.6479 98.3065 50.3779 99.871 49.4392C101.436 48.5005 103.687 41.7665 106.755 37.2358C110.307 31.9889 116.142 27.2229 117.081 24.7195C118.019 22.2162 118.217 20.9248 118.019 18.4614C117.44 11.2243 111.5 6.5 104.564 5.6322C94.9342 4.42728 89.5447 8.1358 86.4157 11.8903C80.6454 18.8139 80.5153 27.2717 81.4093 34.4197C82.0746 39.7391 85.5 46 90.7967 48.8134Z" fill="#333333"/>
<path d="M99.3194 43.8026C101.51 45.0543 102.136 45.1551 102.136 45.1551C102.136 45.1551 105.014 39.3843 107.455 36.0808C110.23 32.3259 114.798 28.0427 114.652 27.9452C114.506 27.8478 114.076 27.5076 113.713 27.2186C111.753 25.6555 110.271 23.4637 109.02 22.8378C104.639 20.3345 99.3194 24.0894 97.442 25.6539C95.5645 27.2185 94 30.0346 94 35.0411C94 39.0464 97.1291 42.5508 99.3194 43.8026Z" fill="black"/>
<path d="M138.358 58.2007C135.855 57.4497 135.229 57.8877 133.977 60.391C132.726 62.8944 141.8 69.4654 144.303 69.4654C146.807 69.4654 148.371 65.3976 147.12 63.8331C145.868 62.2685 141.487 59.1394 138.358 58.2007Z" fill="#333333"/>
<path d="M177.472 61.9556C178.767 59.6856 178.378 58.419 176.22 56.6362C174.063 54.8534 167.19 60.9309 166.627 63.37C166.064 65.8092 169.675 68.2489 171.481 67.3815C173.287 66.514 175.853 64.7932 177.472 61.9556Z" fill="#333333"/>
<path d="M134.955 72.5945C124.316 72.5944 117.519 81.3558 115.554 87.9269C113.59 94.4981 119.998 102.133 131.513 101.382C145.906 100.443 147.471 88.2398 147.471 83.8592C147.471 79.4785 145.594 72.5946 134.955 72.5945Z" fill="url(#paint8_linear)"/>
<path fill-rule="evenodd" clip-rule="evenodd" d="M135.649 82.9363L136 82C136.351 81.0637 136.351 81.0637 136.351 81.0638L136.376 81.0732L136.446 81.0995C136.506 81.1225 136.594 81.1562 136.705 81.1993C136.928 81.2856 137.245 81.4102 137.625 81.5641C138.384 81.8714 139.401 82.2978 140.421 82.7716C141.434 83.2418 142.483 83.7734 143.291 84.2927C143.691 84.5501 144.072 84.8292 144.363 85.121C144.609 85.367 145 85.8219 145 86.4286C145 87.0451 144.599 87.4959 144.347 87.7367C144.05 88.0204 143.665 88.2852 143.263 88.5256C142.452 89.011 141.4 89.4969 140.387 89.9221C139.366 90.3507 138.348 90.7321 137.589 91.0056C137.208 91.1426 136.891 91.2531 136.668 91.3295C136.557 91.3677 136.469 91.3975 136.409 91.4178L136.339 91.4411L136.321 91.4472L136.314 91.4493C136.314 91.4493 136.314 91.4495 136 90.5L135.686 89.5505L135.707 89.5437L135.771 89.5221C135.828 89.503 135.912 89.4746 136.019 89.4378C136.234 89.3641 136.542 89.257 136.911 89.1239C137.652 88.8572 138.634 88.4886 139.613 88.0779C140.6 87.6638 141.548 87.2212 142.237 86.8092C142.485 86.6608 142.678 86.5287 142.82 86.4164C142.673 86.2914 142.47 86.143 142.209 85.9751C141.517 85.5302 140.566 85.0439 139.579 84.5856C138.599 84.1307 137.616 83.7179 136.875 83.418C136.505 83.2683 136.197 83.1474 135.982 83.0641C135.875 83.0224 135.791 82.9902 135.734 82.9685L135.669 82.9441L135.649 82.9363ZM143.05 86.6524C143.049 86.6524 143.047 86.6492 143.044 86.6429C143.048 86.6493 143.05 86.6524 143.05 86.6524ZM143.05 86.1997C143.054 86.1918 143.057 86.1879 143.058 86.1879C143.058 86.1879 143.056 86.1918 143.05 86.1997Z" fill="#F1EDE5"/>
<path d="M176.94 81.3558C168.455 69.6911 159.499 74.6381 155.796 76.979L163.798 96.3753C170.682 100.13 183.728 90.6875 176.94 81.3558Z" fill="#333333"/>
<path fill-rule="evenodd" clip-rule="evenodd" d="M145.492 101.348C145.492 101.348 145.493 101.348 144.616 100.13C143.74 98.9128 143.74 98.9127 143.741 98.9125L143.743 98.9111L143.747 98.9083L143.759 98.8997L143.8 98.8706C143.835 98.8461 143.884 98.8117 143.947 98.7688C144.072 98.683 144.252 98.5629 144.475 98.42C144.92 98.1352 145.547 97.7551 146.274 97.3749C147.659 96.6507 149.669 95.7836 151.525 95.8143C153.308 95.8439 155.224 96.7068 156.545 97.4195C157.238 97.7936 157.835 98.1644 158.259 98.4416C158.471 98.5807 158.642 98.6973 158.761 98.7806C158.821 98.8223 158.868 98.8556 158.901 98.8794L158.941 98.9076L158.952 98.916L158.957 98.9197C158.957 98.9199 158.958 98.9204 158.071 100.13C157.185 101.34 157.185 101.34 157.185 101.34L157.181 101.337L157.155 101.319C157.132 101.302 157.095 101.276 157.046 101.242C156.948 101.173 156.801 101.073 156.616 100.952C156.244 100.708 155.721 100.384 155.12 100.06C153.853 99.3759 152.485 98.8307 151.476 98.8139C150.427 98.7966 148.995 99.3375 147.664 100.033C147.034 100.363 146.484 100.696 146.092 100.947C145.897 101.072 145.743 101.175 145.639 101.246C145.588 101.281 145.549 101.308 145.524 101.326L145.497 101.345L145.492 101.348Z" fill="#333333"/>
<path opacity="0.24" d="M179.036 106.701C183.393 117.307 177.99 118.919 173.404 119.844C168.818 120.768 161.783 117.4 151.752 99.8268C148.45 94.0408 145 86.5 144 83L179.036 106.701Z" fill="black"/>
<path d="M180.288 99.1916C185.044 109.956 181.539 117.653 176.533 118.592C171.526 119.531 163.704 116.402 152.752 98.5658C149.146 92.6934 146.494 87.3011 145.242 84.7979C143.952 82.2184 140.862 79.1655 140.862 77.9139C140.862 76.9287 141.232 76.1642 142.113 75.7236C143.365 75.0977 144.603 75.7236 146.5 75.7236C148.397 75.7236 148.5 75.5 148.371 74.159C148.243 72.8181 147.395 70.7694 147.746 69.7783C148.096 68.7873 148.885 68.2138 149.936 68.2138C151.813 68.2138 153.597 72 155.5 72C155.805 72 156 71.5 156.5 70.5C157 69.5 157.133 68.2138 157.446 67.2751C157.719 66.4553 158.459 66.0234 159.323 66.0234C160.187 66.0234 160.575 66.6493 160.888 67.588C161.429 69.211 161.826 71.9687 161.826 71.9687C161.826 71.9687 175.532 88.4276 180.288 99.1916Z" fill="url(#paint9_linear)"/>
<defs>
<filter id="filter0_f" x="123" y="109" width="70" height="51" filterUnits="userSpaceOnUse" color-interpolation-filters="sRGB">
<feFlood flood-opacity="0" result="BackgroundImageFix"/>
<feBlend mode="normal" in="SourceGraphic" in2="BackgroundImageFix" result="shape"/>
<feGaussianBlur stdDeviation="5" result="effect1_foregroundBlur"/>
</filter>
<filter id="filter1_f" x="93" y="17" width="108" height="90" filterUnits="userSpaceOnUse" color-interpolation-filters="sRGB">
<feFlood flood-opacity="0" result="BackgroundImageFix"/>
<feBlend mode="normal" in="SourceGraphic" in2="BackgroundImageFix" result="shape"/>
<feGaussianBlur stdDeviation="5" result="effect1_foregroundBlur"/>
</filter>
<radialGradient id="paint0_diamond" cx="0" cy="0" r="1" gradientUnits="userSpaceOnUse" gradientTransform="translate(144.754 139) rotate(90.2886) scale(50.5006 248.758)">
<stop stop-color="#C4C4C4"/>
<stop offset="1" stop-color="#C4C4C4" stop-opacity="0"/>
</radialGradient>
<linearGradient id="paint1_linear" x1="119.545" y1="156.5" x2="142.545" y2="166" gradientUnits="userSpaceOnUse">
<stop stop-color="#333333"/>
<stop offset="1"/>
</linearGradient>
<linearGradient id="paint2_linear" x1="170" y1="148" x2="151" y2="166" gradientUnits="userSpaceOnUse">
<stop stop-color="#333333"/>
<stop offset="1"/>
</linearGradient>
<linearGradient id="paint3_linear" x1="138.59" y1="101.695" x2="138.59" y2="159.586" gradientUnits="userSpaceOnUse">
<stop stop-color="#E7DFDA"/>
<stop offset="1" stop-color="#CBBDB5"/>
</linearGradient>
<linearGradient id="paint4_linear" x1="158" y1="119" x2="169.483" y2="148.807" gradientUnits="userSpaceOnUse">
<stop stop-color="white"/>
<stop offset="1" stop-color="white" stop-opacity="0.53"/>
</linearGradient>
<linearGradient id="paint5_linear" x1="132.231" y1="101.695" x2="133.5" y2="152.5" gradientUnits="userSpaceOnUse">
<stop stop-color="#434343"/>
<stop offset="1" stop-color="#231C1C"/>
</linearGradient>
<linearGradient id="paint6_linear" x1="143.956" y1="8.7614" x2="143.956" y2="106.485" gradientUnits="userSpaceOnUse">
<stop stop-color="#F1EDE5"/>
<stop offset="1" stop-color="#E2D9D5"/>
</linearGradient>
<linearGradient id="paint7_linear" x1="147" y1="27" x2="177.704" y2="89.1192" gradientUnits="userSpaceOnUse">
<stop stop-color="white"/>
<stop offset="1" stop-color="white" stop-opacity="0.53"/>
</linearGradient>
<linearGradient id="paint8_linear" x1="144.304" y1="78.2268" x2="92.3609" y2="101.382" gradientUnits="userSpaceOnUse">
<stop/>
<stop offset="1" stop-color="#A39090"/>
</linearGradient>
<linearGradient id="paint9_linear" x1="179.5" y1="118" x2="150.5" y2="71" gradientUnits="userSpaceOnUse">
<stop stop-color="#1E1E1E"/>
<stop offset="1" stop-color="#302D2D"/>
</linearGradient>
</defs>
</svg>
